HIERARCHY
ROOT hip
{
  OFFSET 279.657 78.3256 -26.8452
  CHANNELS 6 Xposition Yposition Zposition Zrotation Xrotation Yrotation
  JOINT abdomen
  {
    OFFSET 0 20.6881 -0.73152
    CHANNELS 3 Zrotation Xrotation Yrotation
    JOINT chest
    {
      OFFSET 0 11.7043 -0.48768
      CHANNELS 3 Zrotation Xrotation Yrotation
      JOINT neck
      {
        OFFSET 0 22.1894 -2.19456
        CHANNELS 3 Zrotation Xrotation Yrotation
        JOINT head
        {
          OFFSET -0.24384 7.07133 1.2192
          CHANNELS 3 Zrotation Xrotation Yrotation
          JOINT leftEye
          {
            OFFSET 4.14528 8.04674 8.04672
            CHANNELS 3 Zrotation Xrotation Yrotation
            End Site
            {
              OFFSET 1 0 0
            }
          }
          JOINT rightEye
          {
            OFFSET -3.6576 8.04674 8.04672
            CHANNELS 3 Zrotation Xrotation Yrotation
            End Site
            {
              OFFSET 1 0 0
            }
          }
        }
      }
      JOINT rCollar
      {
        OFFSET -2.68224 19.2634 -4.8768
        CHANNELS 3 Zrotation Xrotation Yrotation
        JOINT rShldr
        {
          OFFSET -8.77824 -1.95073 1.46304
          CHANNELS 3 Zrotation Xrotation Yrotation
          JOINT rForeArm
          {
            OFFSET -28.1742 -1.7115 0.48768
            CHANNELS 3 Zrotation Xrotation Yrotation
            JOINT rHand
            {
              OFFSET -22.5879 0.773209 7.07136
              CHANNELS 3 Zrotation Xrotation Yrotation
              JOINT rThumb1
              {
                OFFSET -1.2192 -0.487915 3.41376
                CHANNELS 3 Zrotation Xrotation Yrotation
                JOINT rThumb2
                {
                  OFFSET -3.37035 -0.52449 3.41376
                  CHANNELS 3 Zrotation Xrotation Yrotation
                  End Site
                  {
                    OFFSET -1.78271 -1.18214 1.43049
                  }
                }
              }
              JOINT rIndex1
              {
                OFFSET -7.75947 0.938293 5.60832
                CHANNELS 3 Zrotation Xrotation Yrotation
                JOINT rIndex2
                {
                  OFFSET -2.54057 -0.884171 1.56538
                  CHANNELS 3 Zrotation Xrotation Yrotation
                  End Site
                  {
                    OFFSET -1.62519 -0.234802 1.16502
                  }
                }
              }
              JOINT rMid1
              {
                OFFSET -8.24714 1.18213 3.41376
                CHANNELS 3 Zrotation Xrotation Yrotation
                JOINT rMid2
                {
                  OFFSET -3.10165 -0.590103 1.0647
                  CHANNELS 3 Zrotation Xrotation Yrotation
                  End Site
                  {
                    OFFSET -2.48547 -0.328903 0.83742
                  }
                }
              }
              JOINT rRing1
              {
                OFFSET -8.82822 0.546677 1.51678
                CHANNELS 3 Zrotation Xrotation Yrotation
                JOINT rRing2
                {
                  OFFSET -2.60934 -0.819778 -0.0198488
                  CHANNELS 3 Zrotation Xrotation Yrotation
                  End Site
                  {
                    OFFSET -2.33842 -0.294052 0.168128
                  }
                }
              }
              JOINT rPinky1
              {
                OFFSET -8.27202 -0.0477905 -0.4584
                CHANNELS 3 Zrotation Xrotation Yrotation
                JOINT rPinky2
                {
                  OFFSET -1.82734 -0.647385 -0.700984
                  CHANNELS 3 Zrotation Xrotation Yrotation
                  End Site
                  {
                    OFFSET -1.69225 -0.51767 -0.607171
                  }
                }
              }
            }
          }
        }
      }
      JOINT lCollar
      {
        OFFSET 2.68224 19.2634 -4.8768
        CHANNELS 3 Zrotation Xrotation Yrotation
        JOINT lShldr
        {
          OFFSET 8.77824 -1.95073 1.46304
          CHANNELS 3 Zrotation Xrotation Yrotation
          JOINT lForeArm
          {
            OFFSET 28.1742 -1.7115 0.48768
            CHANNELS 3 Zrotation Xrotation Yrotation
            JOINT lHand
            {
              OFFSET 22.5879 0.773209 7.07136
              CHANNELS 3 Zrotation Xrotation Yrotation
              JOINT lThumb1
              {
                OFFSET 1.2192 -0.487915 3.41376
                CHANNELS 3 Zrotation Xrotation Yrotation
                JOINT lThumb2
                {
                  OFFSET 3.37035 -0.52449 3.41376
                  CHANNELS 3 Zrotation Xrotation Yrotation
                  End Site
                  {
                    OFFSET 1.78271 -1.18214 1.43049
                  }
                }
              }
              JOINT lIndex1
              {
                OFFSET 7.75947 0.938293 5.60832
                CHANNELS 3 Zrotation Xrotation Yrotation
                JOINT lIndex2
                {
                  OFFSET 2.54057 -0.884171 1.56538
                  CHANNELS 3 Zrotation Xrotation Yrotation
                  End Site
                  {
                    OFFSET 1.62519 -0.234802 1.16502
                  }
                }
              }
              JOINT lMid1
              {
                OFFSET 8.24714 1.18213 3.41376
                CHANNELS 3 Zrotation Xrotation Yrotation
                JOINT lMid2
                {
                  OFFSET 3.10165 -0.590103 1.0647
                  CHANNELS 3 Zrotation Xrotation Yrotation
                  End Site
                  {
                    OFFSET 2.48547 -0.328903 0.83742
                  }
                }
              }
              JOINT lRing1
              {
                OFFSET 8.82822 0.546677 1.51678
                CHANNELS 3 Zrotation Xrotation Yrotation
                JOINT lRing2
                {
                  OFFSET 2.60934 -0.819778 -0.0198488
                  CHANNELS 3 Zrotation Xrotation Yrotation
                  End Site
                  {
                    OFFSET 2.33842 -0.294052 0.168128
                  }
                }
              }
              JOINT lPinky1
              {
                OFFSET 8.27202 -0.0477905 -0.4584
                CHANNELS 3 Zrotation Xrotation Yrotation
                JOINT lPinky2
                {
                  OFFSET 1.82734 -0.647385 -0.700984
                  CHANNELS 3 Zrotation Xrotation Yrotation
                  End Site
                  {
                    OFFSET 1.69225 -0.51767 -0.607171
                  }
                }
              }
            }
          }
        }
      }
    }
  }
  JOINT rButtock
  {
    OFFSET -8.77824 4.35084 1.2192
    CHANNELS 3 Zrotation Xrotation Yrotation
    JOINT rThigh
    {
      OFFSET 0 -1.70687 -2.19456
      CHANNELS 3 Zrotation Xrotation Yrotation
      JOINT rShin
      {
        OFFSET 0 -36.8199 0.73152
        CHANNELS 3 Zrotation Xrotation Yrotation
        JOINT rFoot
        {
          OFFSET 0.73152 -45.1104 -5.12064
          CHANNELS 3 Zrotation Xrotation Yrotation
          End Site
          {
            OFFSET -1.1221 -3.69964 12.103
          }
        }
      }
    }
  }
  JOINT lButtock
  {
    OFFSET 8.77824 4.35084 1.2192
    CHANNELS 3 Zrotation Xrotation Yrotation
    JOINT lThigh
    {
      OFFSET 0 -1.70687 -2.19456
      CHANNELS 3 Zrotation Xrotation Yrotation
      JOINT lShin
      {
        OFFSET 0 -36.8199 0.73152
        CHANNELS 3 Zrotation Xrotation Yrotation
        JOINT lFoot
        {
          OFFSET -0.73152 -45.1104 -5.12064
          CHANNELS 3 Zrotation Xrotation Yrotation
          End Site
          {
            OFFSET 1.1221 -3.69964 12.103
          }
        }
      }
    }
  }
}
MOTION
Frames:	6
Frame Time:	0.00833333
-59.9033 69.2941 4.0147 -20.4988 3.43131 78.4427 7.86897 35.6101 -15.3648 8.25558 -1.46967 -2.60938 -4.06637 5.34266 7.33785 15.572 -50.9337 26.1725 -0 0 0 -0 0 0 1.72885e-013 -4.79739e-013 4.95009e-014 34.5003 19.5501 72.1401 -27.411 -42.6673 89.0241 -0.392395 17.7255 2.57136 6.93221e-011 -3.84996e-010 1.05623e-009 1.31005e-010 -6.6441e-010 1.82507e-009 6.93221e-011 -3.84998e-010 1.05622e-009 7.73091 5.47488 0.417314 6.93222e-011 -3.84994e-010 1.05623e-009 2.90554 0.965183 0.102902 6.93285e-011 -3.84995e-010 1.05623e-009 10.2786 0.731801 0.0259123 6.93173e-011 -3.84993e-010 1.05623e-009 2.22167 -0.733487 -0.20892 1.72713e-013 -4.79702e-013 4.91709e-014 -87.9531 50.1816 10.311 23.0422 -17.4557 -46.4325 0.38096 -17.28 2.50584 4.24245e-010 -3.05987e-010 1.08098e-010 7.33615e-010 -5.29528e-010 1.91045e-010 4.24241e-010 -3.05989e-010 1.08104e-010 -7.73091 5.47488 -0.417314 4.24245e-010 -3.05988e-010 1.08093e-010 -2.90554 0.965183 -0.102902 4.24237e-010 -3.0599e-010 1.08099e-010 -10.2786 0.731801 -0.0259123 4.24252e-010 -3.05989e-010 1.08089e-010 -2.22167 -0.733487 0.20892 -2.03217e-016 0 -3.88251e-019 -17.1355 -69.218 -13.6591 -3.295 76.0744 3.92202 -4.15461 -18.2585 -9.52966 2.03217e-016 0 3.88251e-019 -8.71868 -11.0059 7.0323 1.31637 66.1359 -2.69451 1.57402 3.06155 3.8127 
-57.4632 69.3544 4.19984 -20.3454 2.68427 78.0234 8.54067 36.2239 -13.9718 7.5196 -1.67026 -2.17072 -3.98624 5.21633 6.86627 15.9111 -51.2498 25.4293 -0 0 0 -0 0 0 1.71828e-013 -4.72349e-013 3.83157e-014 31.6907 18.3197 73.3649 -27.7512 -41.5646 86.7742 -0.517402 20.0052 2.93294 -6.34e-011 -3.2372e-010 8.98319e-010 -9.85427e-011 -5.59736e-010 1.55296e-009 -6.3402e-011 -3.2372e-010 8.98313e-010 7.73091 5.47488 0.417314 -6.34002e-011 -3.23716e-010 8.98319e-010 2.90554 0.965183 0.102902 -6.33945e-011 -3.23717e-010 8.98317e-010 10.2786 0.731801 0.0259123 -6.3404e-011 -3.23716e-010 8.98322e-010 2.22167 -0.733487 -0.20892 1.71682e-013 -4.72276e-013 3.80176e-014 -90.9993 50.5612 13.0191 22.064 -15.8537 -43.9627 0.370373 -17.0505 2.4704 7.72358e-010 -1.43074e-010 -2.26265e-010 1.34021e-009 -2.48875e-010 -3.81624e-010 7.72354e-010 -1.43079e-010 -2.26258e-010 -7.73091 5.47488 -0.417314 7.72352e-010 -1.43079e-010 -2.26268e-010 -2.90554 0.965183 -0.102902 7.72351e-010 -1.4308e-010 -2.26265e-010 -10.2786 0.731801 -0.0259123 7.72362e-010 -1.43079e-010 -2.26271e-010 -2.22167 -0.733487 0.20892 -2.03217e-016 0 -3.88251e-019 -15.468 -66.8618 -12.4733 -3.40984 76.3659 3.96025 -4.51406 -20.1519 -9.60577 2.03217e-016 0 3.88251e-019 -6.71912 -14.6495 8.33389 2.11284 72.1523 -3.36471 1.6838 2.94985 4.3978 
-55.1097 69.2876 4.42392 -20.3114 1.60435 77.4855 9.60223 36.9516 -12.4069 6.5148 -1.8423 -1.64584 -3.8076 5.05637 6.25149 16.2259 -51.8998 24.446 -0 0 0 -0 0 0 2.05664e-013 -5.66787e-013 3.03558e-014 29.6765 17.0996 73.8236 -28.0399 -40.2461 84.4147 -0.629417 21.8068 3.22566 -1.46381e-010 -1.9328e-010 6.83047e-010 -2.42989e-010 -3.34307e-010 1.18252e-009 -1.46383e-010 -1.93279e-010 6.83038e-010 7.73091 5.47488 0.417314 -1.46381e-010 -1.93276e-010 6.83048e-010 2.90554 0.965183 0.102902 -1.46375e-010 -1.93276e-010 6.83044e-010 10.2786 0.731801 0.0259123 -1.46384e-010 -1.93276e-010 6.83049e-010 2.22167 -0.733487 -0.20892 2.05585e-013 -5.66707e-013 3.00871e-014 -93.4355 50.7665 15.5146 21.1955 -14.5697 -41.8292 0.39793 -17.6799 2.56726 3.83505e-010 1.73498e-011 -2.23032e-010 6.68646e-010 2.72907e-011 -3.82271e-010 3.83502e-010 1.73455e-011 -2.23025e-010 -7.73091 5.47488 -0.417314 3.83499e-010 1.73467e-011 -2.23033e-010 -2.90554 0.965183 -0.102902 3.835e-010 1.7345e-011 -2.23031e-010 -10.2786 0.731801 -0.0259123 3.83509e-010 1.73471e-011 -2.23037e-010 -2.22167 -0.733487 0.20892 -2.03217e-016 0 -3.88251e-019 -13.4116 -64.4684 -11.5459 -3.34945 76.1068 3.82928 -5.38202 -21.0429 -11.0073 2.03217e-016 0 3.88251e-019 -4.04133 -18.6921 9.7059 3.72672 77.952 -4.84126 1.77365 2.83153 4.78625 
-52.7622 69.2404 4.59452 -20.391 0.165148 76.9749 10.9426 37.782 -10.6472 5.27728 -2.01712 -1.04059 -3.56431 4.882 5.51 16.5409 -52.8111 23.2443 -0 0 0 -0 0 0 2.57027e-013 -7.14249e-013 2.27298e-014 28.2374 15.9103 73.7204 -28.2209 -38.6696 82.0045 -0.717798 23.235 3.46063 -2.31107e-010 -2.50997e-011 3.96635e-010 -3.91214e-010 -4.29947e-011 6.89718e-010 -2.31109e-010 -2.50972e-011 3.96621e-010 7.73091 5.47488 0.417314 -2.31107e-010 -2.50966e-011 3.96636e-010 2.90554 0.965183 0.102902 -2.311e-010 -2.50953e-011 3.96631e-010 10.2786 0.731801 0.0259123 -2.3111e-010 -2.50956e-011 3.96635e-010 2.22167 -0.733487 -0.20892 2.57047e-013 -7.1418e-013 2.24937e-014 -95.3688 50.7908 17.822 20.4372 -13.5607 -39.8588 0.457068 -18.8771 2.7545 -4.42522e-010 1.96629e-010 -2.08314e-011 -7.61204e-010 3.35528e-010 -4.57794e-011 -4.42523e-010 1.96628e-010 -2.08237e-011 -7.73091 5.47488 -0.417314 -4.42525e-010 1.9663e-010 -2.0831e-011 -2.90554 0.965183 -0.102902 -4.42524e-010 1.96628e-010 -2.08306e-011 -10.2786 0.731801 -0.0259123 -4.42517e-010 1.96631e-010 -2.08354e-011 -2.22167 -0.733487 0.20892 -2.03217e-016 0 -3.88251e-019 -10.9713 -61.9768 -10.7102 -3.19976 75.5215 3.6104 -6.59663 -21.3338 -13.2225 2.03217e-016 0 3.88251e-019 -0.601969 -23.1841 11.3061 8.44571 83.7886 -9.40684 1.85582 2.68076 5.02127 
-50.4696 69.2624 4.77728 -20.491 -1.36246 76.6178 12.1788 38.6725 -8.7221 3.95961 -2.16301 -0.400893 -3.30568 4.75208 4.68035 16.8657 -53.8804 21.8857 -0 0 0 -0 0 0 2.95969e-013 -8.2534e-013 1.53305e-014 27.3371 14.7283 73.2062 -28.3379 -37.0084 79.2716 -0.786865 24.3347 3.64403 -2.66377e-010 1.25148e-010 1.24647e-010 -4.54122e-010 2.17318e-010 2.20953e-010 -2.66378e-010 1.25151e-010 1.24629e-010 7.73091 5.47488 0.417314 -2.66376e-010 1.2515e-010 1.24648e-010 2.90554 0.965183 0.102902 -2.66369e-010 1.25153e-010 1.24642e-010 10.2786 0.731801 0.0259123 -2.66379e-010 1.25152e-010 1.24646e-010 2.22167 -0.733487 -0.20892 2.9608e-013 -8.25288e-013 1.51208e-014 -96.8458 50.7508 19.9892 19.83 -12.8073 -38.2682 0.539001 -20.3824 2.99386 -1.26844e-009 3.36646e-010 2.09173e-010 -2.19137e-009 5.76125e-010 3.38967e-010 -1.26844e-009 3.36648e-010 2.09183e-010 -7.73091 5.47488 -0.417314 -1.26844e-009 3.36652e-010 2.09175e-010 -2.90554 0.965183 -0.102902 -1.26844e-009 3.3665e-010 2.09175e-010 -10.2786 0.731801 -0.0259123 -1.26843e-009 3.36654e-010 2.0917e-010 -2.22167 -0.733487 0.20892 -2.03217e-016 0 -3.88251e-019 -8.67991 -59.3689 -10.0287 -3.00382 74.7082 3.36034 -7.78352 -21.4121 -15.4193 2.03217e-016 0 3.88251e-019 3.17174 -27.8417 13.0079 57.3311 88.782 -58.1383 1.90992 2.49019 5.09088 
-48.1174 69.3882 4.99006 -20.503 -2.64722 76.4153 12.9343 39.5808 -6.66481 2.71239 -2.24829 0.227239 -3.077 4.72593 3.80074 17.2264 -55.0055 20.4431 -0 0 0 -0 0 0 2.92542e-013 -8.10662e-013 8.05078e-015 26.9463 13.5155 72.4122 -28.4316 -35.3454 75.9178 -0.844289 25.1507 3.78347 -2.00988e-010 2.0179e-010 -4.73521e-011 -3.42614e-010 3.4975e-010 -7.73805e-011 -2.00988e-010 2.01792e-010 -4.73712e-011 7.73091 5.47488 0.417314 -2.00988e-010 2.0179e-010 -4.73521e-011 2.90554 0.965183 0.102902 -2.00979e-010 2.01794e-010 -4.73585e-011 10.2786 0.731801 0.0259123 -2.00989e-010 2.01793e-010 -4.73553e-011 2.22167 -0.733487 -0.20892 2.92699e-013 -8.10625e-013 7.85199e-015 -97.9422 50.7558 22.0862 19.4168 -12.2956 -37.2824 0.629 -21.9363 3.24471 -1.65697e-009 3.79284e-010 2.9582e-010 -2.8639e-009 6.49371e-010 4.83086e-010 -1.65697e-009 3.79289e-010 2.95833e-010 -7.73091 5.47488 -0.417314 -1.65697e-009 3.79292e-010 2.95823e-010 -2.90554 0.965183 -0.102902 -1.65697e-009 3.7929e-010 2.95823e-010 -10.2786 0.731801 -0.0259123 -1.65697e-009 3.79294e-010 2.95817e-010 -2.22167 -0.733487 0.20892 -2.03217e-016 0 -3.88251e-019 -7.04793 -56.6287 -9.54612 -2.79243 73.7651 3.12374 -8.60293 -21.7009 -16.783 2.03217e-016 0 3.88251e-019 6.76496 -32.4025 14.6413 164.385 85.8678 -165.055 1.91475 2.2523 4.98315 
